<svg width="225" height="44" viewBox="0 0 225 44" fill="none" xmlns="http://www.w3.org/2000/svg">
<rect x="2" width="40" height="40" rx="20" fill="url(#paint0_linear)"/>
<path d="M57.208 19.752H64.6C64.968 19.752 65.24 19.768 65.416 19.8C65.608 19.816 65.824 19.888 66.064 20.016C66.496 20.24 66.712 20.864 66.712 21.888C66.712 23.008 66.416 23.664 65.824 23.856C65.552 23.952 65.136 24 64.576 24H55.072C53.952 24 53.296 23.696 53.104 23.088C53.008 22.832 52.96 22.424 52.96 21.864V8.52C52.96 7.704 53.112 7.152 53.416 6.864C53.72 6.56 54.296 6.408 55.144 6.408H64.6C64.968 6.408 65.24 6.424 65.416 6.456C65.608 6.472 65.824 6.544 66.064 6.672C66.496 6.896 66.712 7.52 66.712 8.544C66.712 9.664 66.416 10.32 65.824 10.512C65.552 10.608 65.136 10.656 64.576 10.656H57.208V13.08H61.96C62.328 13.08 62.6 13.096 62.776 13.128C62.968 13.144 63.184 13.216 63.424 13.344C63.856 13.568 64.072 14.192 64.072 15.216C64.072 16.336 63.768 16.992 63.16 17.184C62.888 17.28 62.472 17.328 61.912 17.328H57.208V19.752ZM75.8547 17.664L79.0467 20.304C79.4467 20.64 79.6947 20.896 79.7907 21.072C79.9027 21.248 79.9587 21.416 79.9587 21.576C79.9587 21.96 79.7107 22.48 79.2147 23.136C78.6707 23.808 78.1907 24.144 77.7747 24.144C77.4227 24.144 76.9347 23.912 76.3107 23.448L76.0707 23.28C75.7027 22.976 75.1347 22.448 74.3667 21.696C73.5987 20.928 73.0147 20.384 72.6147 20.064V21.912C72.6147 22.28 72.5987 22.56 72.5667 22.752C72.5507 22.928 72.4787 23.136 72.3507 23.376C72.1427 23.792 71.5267 24 70.5027 24C69.4947 24 68.8787 23.784 68.6547 23.352C68.5427 23.112 68.4707 22.904 68.4387 22.728C68.4227 22.536 68.4147 22.256 68.4147 21.888V7.512C68.4147 7.144 68.4227 6.872 68.4387 6.696C68.4707 6.504 68.5427 6.288 68.6547 6.048C68.8787 5.616 69.5027 5.4 70.5267 5.4C71.2947 5.4 71.8387 5.536 72.1587 5.808C72.4307 6.032 72.5747 6.384 72.5907 6.864C72.6067 7.008 72.6147 7.232 72.6147 7.536V15.144C72.9027 14.904 73.3347 14.496 73.9107 13.92C74.5027 13.344 74.9427 12.936 75.2307 12.696L75.5187 12.504C76.0787 12.072 76.5587 11.856 76.9587 11.856C77.3587 11.856 77.8147 12.184 78.3267 12.84C78.8547 13.48 79.1187 13.984 79.1187 14.352C79.1187 14.72 78.8227 15.152 78.2307 15.648L75.8547 17.664ZM80.3453 17.688C80.3453 15.768 81.0173 14.184 82.3613 12.936C83.7053 11.688 85.2413 11.064 86.9693 11.064C88.6973 11.064 90.2253 11.688 91.5533 12.936C92.8813 14.168 93.5453 15.744 93.5453 17.664C93.5453 18.992 93.2013 20.176 92.5133 21.216C91.8253 22.24 90.9853 23 89.9933 23.496C89.0173 23.976 88.0013 24.216 86.9453 24.216C85.8893 24.216 84.8653 23.96 83.8733 23.448C82.8813 22.92 82.0413 22.152 81.3533 21.144C80.6813 20.12 80.3453 18.968 80.3453 17.688ZM85.3613 19.416C85.8733 19.8 86.3933 19.992 86.9213 19.992C87.4493 19.992 87.9773 19.792 88.5053 19.392C89.0333 18.992 89.2973 18.4 89.2973 17.616C89.2973 16.832 89.0493 16.248 88.5533 15.864C88.0573 15.48 87.5213 15.288 86.9453 15.288C86.3693 15.288 85.8333 15.488 85.3373 15.888C84.8413 16.288 84.5933 16.88 84.5933 17.664C84.5933 18.432 84.8493 19.016 85.3613 19.416ZM108.71 21.024C108.95 21.6 109.07 22.016 109.07 22.272C109.07 22.88 108.574 23.392 107.582 23.808C107.07 24.032 106.654 24.144 106.334 24.144C106.03 24.144 105.774 24.072 105.566 23.928C105.374 23.768 105.23 23.608 105.134 23.448C104.974 23.144 104.35 21.696 103.262 19.104L102.518 19.152H99.4939V21.864C99.4939 22.232 99.4779 22.512 99.4459 22.704C99.4299 22.88 99.3579 23.088 99.2299 23.328C99.0059 23.76 98.3819 23.976 97.3579 23.976C96.2379 23.976 95.5819 23.68 95.3899 23.088C95.2939 22.816 95.2459 22.4 95.2459 21.84V8.52C95.2459 8.152 95.2539 7.88 95.2699 7.704C95.3019 7.512 95.3819 7.296 95.5099 7.056C95.7339 6.624 96.3579 6.408 97.3819 6.408H102.566C103.974 6.408 105.342 6.92 106.67 7.944C107.31 8.44 107.838 9.112 108.254 9.96C108.67 10.808 108.878 11.752 108.878 12.792C108.878 14.6 108.278 16.088 107.078 17.256C107.43 18.104 107.974 19.36 108.71 21.024ZM99.4939 14.904H102.566C103.03 14.904 103.494 14.728 103.958 14.376C104.422 14.024 104.654 13.496 104.654 12.792C104.654 12.088 104.422 11.56 103.958 11.208C103.494 10.84 103.014 10.656 102.518 10.656H99.4939V14.904ZM122.26 16.176C122.26 17.152 122.012 17.88 121.516 18.36C121.036 18.824 120.5 19.056 119.908 19.056H114.22C114.22 19.504 114.484 19.88 115.012 20.184C115.54 20.488 116.068 20.64 116.596 20.64C117.524 20.64 118.252 20.544 118.78 20.352L119.044 20.256C119.428 20.08 119.748 19.992 120.004 19.992C120.516 19.992 120.956 20.352 121.324 21.072C121.532 21.504 121.636 21.872 121.636 22.176C121.636 23.6 119.932 24.312 116.524 24.312C115.34 24.312 114.284 24.112 113.356 23.712C112.444 23.296 111.732 22.752 111.22 22.08C110.212 20.784 109.708 19.336 109.708 17.736C109.708 15.72 110.356 14.112 111.652 12.912C112.964 11.696 114.596 11.088 116.548 11.088C118.772 11.088 120.404 11.872 121.444 13.44C121.988 14.272 122.26 15.184 122.26 16.176ZM117.196 16.872C117.804 16.872 118.108 16.616 118.108 16.104C118.108 15.736 117.964 15.44 117.676 15.216C117.404 14.992 117.004 14.88 116.476 14.88C115.964 14.88 115.452 15.096 114.94 15.528C114.428 15.944 114.172 16.392 114.172 16.872H117.196ZM124.072 22.872C123.768 22.68 123.616 22.376 123.616 21.96C123.616 21.544 123.92 20.912 124.528 20.064C124.704 19.792 124.984 19.656 125.368 19.656C125.768 19.656 126.304 19.856 126.976 20.256C127.648 20.64 128.256 20.832 128.8 20.832C129.776 20.832 130.264 20.64 130.264 20.256C130.264 19.952 129.728 19.728 128.656 19.584C127.648 19.44 126.648 19.064 125.656 18.456C125.192 18.168 124.808 17.72 124.504 17.112C124.2 16.488 124.048 15.752 124.048 14.904C124.048 12.376 125.784 11.112 129.256 11.112C130.392 11.112 131.56 11.384 132.76 11.928C133.32 12.184 133.6 12.504 133.6 12.888C133.6 13.272 133.424 13.744 133.072 14.304C132.72 14.864 132.36 15.144 131.992 15.144C131.8 15.144 131.44 15.024 130.912 14.784C130.4 14.544 129.84 14.424 129.232 14.424C128.288 14.424 127.816 14.6 127.816 14.952C127.816 15.432 128.36 15.744 129.448 15.888C130.504 16 131.528 16.304 132.52 16.8C132.984 17.024 133.368 17.416 133.672 17.976C133.992 18.52 134.152 19.208 134.152 20.04C134.152 20.872 133.992 21.584 133.672 22.176C133.368 22.752 132.936 23.184 132.376 23.472C131.352 23.968 130.064 24.216 128.512 24.216C126.976 24.216 125.496 23.768 124.072 22.872ZM142.837 15.6L141.277 15.504V18.816C141.277 19.248 141.341 19.56 141.469 19.752C141.613 19.944 141.869 20.04 142.237 20.04C142.621 20.04 142.909 20.056 143.101 20.088C143.309 20.104 143.525 20.176 143.749 20.304C144.117 20.512 144.301 21.048 144.301 21.912C144.301 22.92 144.077 23.536 143.629 23.76C143.389 23.872 143.173 23.944 142.981 23.976C142.805 23.992 142.541 24 142.189 24C140.525 24 139.261 23.624 138.397 22.872C137.533 22.12 137.101 20.848 137.101 19.056V15.504C136.797 15.552 136.469 15.576 136.117 15.576C135.765 15.576 135.469 15.44 135.229 15.168C135.005 14.896 134.893 14.432 134.893 13.776C134.893 13.12 134.933 12.648 135.013 12.36C135.093 12.056 135.205 11.84 135.349 11.712C135.605 11.504 135.925 11.4 136.309 11.4L137.101 11.496V9.024C137.101 8.656 137.109 8.384 137.125 8.208C137.157 8.032 137.237 7.84 137.365 7.632C137.573 7.232 138.189 7.032 139.213 7.032C140.301 7.032 140.949 7.328 141.157 7.92C141.237 8.176 141.277 8.584 141.277 9.144V11.496C141.981 11.432 142.509 11.4 142.861 11.4C143.229 11.4 143.501 11.416 143.677 11.448C143.869 11.464 144.085 11.536 144.325 11.664C144.741 11.872 144.949 12.488 144.949 13.512C144.949 14.52 144.733 15.136 144.301 15.36C144.061 15.472 143.845 15.544 143.653 15.576C143.477 15.592 143.205 15.6 142.837 15.6ZM154.632 12.696C154.728 11.8 155.36 11.352 156.528 11.352C157.152 11.352 157.616 11.4 157.92 11.496C158.224 11.592 158.432 11.76 158.544 12C158.672 12.24 158.744 12.456 158.76 12.648C158.792 12.824 158.808 13.096 158.808 13.464V21.864C158.808 22.232 158.792 22.512 158.76 22.704C158.744 22.88 158.68 23.088 158.568 23.328C158.344 23.744 157.792 23.952 156.912 23.952C156.048 23.952 155.464 23.848 155.16 23.64C154.872 23.416 154.704 23.096 154.656 22.68C154.064 23.528 153.072 23.952 151.68 23.952C150.304 23.952 149.024 23.32 147.84 22.056C146.656 20.792 146.064 19.328 146.064 17.664C146.064 15.984 146.656 14.52 147.84 13.272C149.04 12.008 150.352 11.376 151.776 11.376C152.32 11.376 152.816 11.472 153.264 11.664C153.712 11.856 154.024 12.04 154.2 12.216C154.376 12.376 154.52 12.536 154.632 12.696ZM150.264 17.688C150.264 18.216 150.472 18.696 150.888 19.128C151.304 19.544 151.808 19.752 152.4 19.752C152.992 19.752 153.48 19.536 153.864 19.104C154.264 18.672 154.464 18.2 154.464 17.688C154.464 17.16 154.272 16.672 153.888 16.224C153.52 15.776 153.016 15.552 152.376 15.552C151.752 15.552 151.24 15.776 150.84 16.224C150.456 16.672 150.264 17.16 150.264 17.688ZM166.487 23.952C164.871 23.952 163.527 23.344 162.455 22.128C161.399 20.896 160.871 19.4 160.871 17.64V13.44C160.871 13.056 160.879 12.776 160.895 12.6C160.927 12.424 160.999 12.216 161.111 11.976C161.335 11.544 161.959 11.328 162.983 11.328C164.103 11.328 164.759 11.632 164.951 12.24C165.047 12.496 165.095 12.904 165.095 13.464V17.664C165.095 18.32 165.279 18.832 165.647 19.2C166.031 19.568 166.535 19.752 167.159 19.752C167.799 19.752 168.311 19.56 168.695 19.176C169.095 18.792 169.295 18.288 169.295 17.664V13.416C169.295 13.048 169.303 12.776 169.319 12.6C169.351 12.408 169.431 12.192 169.559 11.952C169.767 11.536 170.383 11.328 171.407 11.328C172.415 11.328 173.031 11.544 173.255 11.976C173.367 12.216 173.431 12.432 173.447 12.624C173.479 12.8 173.495 13.072 173.495 13.44V21.936C173.495 22.288 173.479 22.56 173.447 22.752C173.431 22.928 173.359 23.128 173.231 23.352C172.991 23.768 172.375 23.976 171.383 23.976C170.407 23.976 169.807 23.784 169.583 23.4C169.423 23.128 169.343 22.8 169.343 22.416C169.279 22.528 169.135 22.688 168.911 22.896C168.687 23.104 168.471 23.28 168.263 23.424C167.719 23.776 167.127 23.952 166.487 23.952ZM184.168 11.496C184.472 11.592 184.72 11.76 184.912 12C185.12 12.224 185.224 12.592 185.224 13.104C185.224 13.616 185.072 14.176 184.768 14.784C184.464 15.392 184.024 15.696 183.448 15.696C183.16 15.696 182.88 15.632 182.608 15.504C182.352 15.376 182.008 15.312 181.576 15.312C181.144 15.312 180.736 15.464 180.352 15.768C179.984 16.072 179.8 16.44 179.8 16.872V21.912C179.8 22.28 179.784 22.56 179.752 22.752C179.736 22.928 179.664 23.136 179.536 23.376C179.296 23.792 178.672 24 177.664 24C176.896 24 176.344 23.864 176.008 23.592C175.752 23.368 175.608 23.024 175.576 22.56C175.576 22.4 175.576 22.168 175.576 21.864V13.44C175.576 13.072 175.584 12.8 175.6 12.624C175.632 12.432 175.704 12.224 175.816 12C176.04 11.568 176.664 11.352 177.688 11.352C178.648 11.352 179.248 11.536 179.488 11.904C179.664 12.16 179.752 12.424 179.752 12.696C179.832 12.584 179.944 12.448 180.088 12.288C180.248 12.128 180.576 11.912 181.072 11.64C181.568 11.368 182 11.232 182.368 11.232C182.752 11.232 183.072 11.256 183.328 11.304C183.584 11.336 183.864 11.4 184.168 11.496ZM194.176 12.696C194.272 11.8 194.904 11.352 196.072 11.352C196.696 11.352 197.16 11.4 197.464 11.496C197.768 11.592 197.976 11.76 198.088 12C198.216 12.24 198.288 12.456 198.304 12.648C198.336 12.824 198.352 13.096 198.352 13.464V21.864C198.352 22.232 198.336 22.512 198.304 22.704C198.288 22.88 198.224 23.088 198.112 23.328C197.888 23.744 197.336 23.952 196.456 23.952C195.592 23.952 195.008 23.848 194.704 23.64C194.416 23.416 194.248 23.096 194.2 22.68C193.608 23.528 192.616 23.952 191.224 23.952C189.848 23.952 188.568 23.32 187.384 22.056C186.2 20.792 185.608 19.328 185.608 17.664C185.608 15.984 186.2 14.52 187.384 13.272C188.584 12.008 189.896 11.376 191.32 11.376C191.864 11.376 192.36 11.472 192.808 11.664C193.256 11.856 193.568 12.04 193.744 12.216C193.92 12.376 194.064 12.536 194.176 12.696ZM189.808 17.688C189.808 18.216 190.016 18.696 190.432 19.128C190.848 19.544 191.352 19.752 191.944 19.752C192.536 19.752 193.024 19.536 193.408 19.104C193.808 18.672 194.008 18.2 194.008 17.688C194.008 17.16 193.816 16.672 193.432 16.224C193.064 15.776 192.56 15.552 191.92 15.552C191.296 15.552 190.784 15.776 190.384 16.224C190 16.672 189.808 17.16 189.808 17.688ZM207.447 11.352C209.047 11.352 210.375 11.968 211.431 13.2C212.503 14.416 213.039 15.904 213.039 17.664V21.888C213.039 22.256 213.023 22.536 212.991 22.728C212.975 22.904 212.911 23.104 212.799 23.328C212.575 23.76 211.951 23.976 210.927 23.976C209.791 23.976 209.135 23.68 208.959 23.088C208.863 22.816 208.815 22.408 208.815 21.864V17.64C208.815 16.984 208.623 16.472 208.239 16.104C207.871 15.736 207.367 15.552 206.727 15.552C206.103 15.552 205.591 15.744 205.191 16.128C204.807 16.512 204.615 17.016 204.615 17.64V21.888C204.615 22.256 204.599 22.536 204.567 22.728C204.551 22.904 204.479 23.104 204.351 23.328C204.143 23.76 203.527 23.976 202.503 23.976C201.495 23.976 200.879 23.76 200.655 23.328C200.543 23.088 200.471 22.88 200.439 22.704C200.423 22.512 200.415 22.232 200.415 21.864V13.368C200.415 13.016 200.423 12.752 200.439 12.576C200.471 12.384 200.551 12.176 200.679 11.952C200.903 11.552 201.519 11.352 202.527 11.352C203.503 11.352 204.103 11.536 204.327 11.904C204.487 12.176 204.567 12.504 204.567 12.888C204.631 12.776 204.775 12.616 204.999 12.408C205.223 12.2 205.439 12.032 205.647 11.904C206.191 11.536 206.791 11.352 207.447 11.352ZM222.229 15.6L220.669 15.504V18.816C220.669 19.248 220.733 19.56 220.861 19.752C221.005 19.944 221.261 20.04 221.629 20.04C222.013 20.04 222.301 20.056 222.493 20.088C222.701 20.104 222.917 20.176 223.141 20.304C223.509 20.512 223.693 21.048 223.693 21.912C223.693 22.92 223.469 23.536 223.021 23.76C222.781 23.872 222.565 23.944 222.373 23.976C222.197 23.992 221.933 24 221.581 24C219.917 24 218.653 23.624 217.789 22.872C216.925 22.12 216.493 20.848 216.493 19.056V15.504C216.189 15.552 215.861 15.576 215.509 15.576C215.157 15.576 214.861 15.44 214.621 15.168C214.397 14.896 214.285 14.432 214.285 13.776C214.285 13.12 214.325 12.648 214.405 12.36C214.485 12.056 214.597 11.84 214.741 11.712C214.997 11.504 215.317 11.4 215.701 11.4L216.493 11.496V9.024C216.493 8.656 216.501 8.384 216.517 8.208C216.549 8.032 216.629 7.84 216.757 7.632C216.965 7.232 217.581 7.032 218.605 7.032C219.693 7.032 220.341 7.328 220.549 7.92C220.629 8.176 220.669 8.584 220.669 9.144V11.496C221.373 11.432 221.901 11.4 222.253 11.4C222.621 11.4 222.893 11.416 223.069 11.448C223.261 11.464 223.477 11.536 223.717 11.664C224.133 11.872 224.341 12.488 224.341 13.512C224.341 14.52 224.125 15.136 223.693 15.36C223.453 15.472 223.237 15.544 223.045 15.576C222.869 15.592 222.597 15.6 222.229 15.6Z" fill="url(#paint1_linear)"/>
<g filter="url(#filter0_dd)">
<path d="M22 21C20.6739 21 19.4021 20.4732 18.4645 19.5355C17.5268 18.5979 17 17.3261 17 16H19C19 16.7956 19.3161 17.5587 19.8787 18.1213C20.4413 18.6839 21.2044 19 22 19C22.7956 19 23.5587 18.6839 24.1213 18.1213C24.6839 17.5587 25 16.7956 25 16H27C27 17.3261 26.4732 18.5979 25.5355 19.5355C24.5979 20.4732 23.3261 21 22 21ZM22 11C22.7956 11 23.5587 11.3161 24.1213 11.8787C24.6839 12.4413 25 13.2044 25 14H19C19 13.2044 19.3161 12.4413 19.8787 11.8787C20.4413 11.3161 21.2044 11 22 11ZM29 14H27C27 13.3434 26.8707 12.6932 26.6194 12.0866C26.3681 11.48 25.9998 10.9288 25.5355 10.4645C25.0712 10.0002 24.52 9.63188 23.9134 9.3806C23.3068 9.12933 22.6566 9 22 9C20.6739 9 19.4021 9.52678 18.4645 10.4645C17.5268 11.4021 17 12.6739 17 14H15C13.89 14 13 14.89 13 16V28C13 28.5304 13.2107 29.0391 13.5858 29.4142C13.9609 29.7893 14.4696 30 15 30H29C29.5304 30 30.0391 29.7893 30.4142 29.4142C30.7893 29.0391 31 28.5304 31 28V16C31 14.89 30.1 14 29 14Z" fill="white"/>
</g>
<defs>
<filter id="filter0_dd" x="0" y="0" width="44" height="44" filterUnits="userSpaceOnUse" color-interpolation-filters="sRGB">
<feFlood flood-opacity="0" result="BackgroundImageFix"/>
<feColorMatrix in="SourceAlpha" type="matrix" values="0 0 0 0 0 0 0 0 0 0 0 0 0 0 0 0 0 0 127 0"/>
<feOffset dy="1"/>
<feGaussianBlur stdDeviation="1"/>
<feColorMatrix type="matrix" values="0 0 0 0 0.0295189 0 0 0 0 0.137798 0 0 0 0 0.187773 0 0 0 0.24 0"/>
<feBlend mode="multiply" in2="BackgroundImageFix" result="effect1_dropShadow"/>
<feColorMatrix in="SourceAlpha" type="matrix" values="0 0 0 0 0 0 0 0 0 0 0 0 0 0 0 0 0 0 127 0"/>
<feOffset dy="2"/>
<feGaussianBlur stdDeviation="3"/>
<feColorMatrix type="matrix" values="0 0 0 0 0.0295189 0 0 0 0 0.137798 0 0 0 0 0.187773 0 0 0 0.16 0"/>
<feBlend mode="multiply" in2="effect1_dropShadow" result="effect2_dropShadow"/>
<feBlend mode="normal" in="SourceGraphic" in2="effect2_dropShadow" result="shape"/>
</filter>
<linearGradient id="paint0_linear" x1="2" y1="20" x2="42" y2="20" gradientUnits="userSpaceOnUse">
<stop stop-color="#F6D365"/>
<stop offset="1" stop-color="#FDA085"/>
</linearGradient>
<linearGradient id="paint1_linear" x1="52" y1="15" x2="234" y2="15" gradientUnits="userSpaceOnUse">
<stop stop-color="#F6D365"/>
<stop offset="1" stop-color="#FDA085"/>
</linearGradient>
</defs>
</svg>
