<svg width="173" height="20" viewBox="0 0 173 20" fill="none" xmlns="http://www.w3.org/2000/svg">
<path d="M5.208 14.752H12.6C12.968 14.752 13.24 14.768 13.416 14.8C13.608 14.816 13.824 14.888 14.064 15.016C14.496 15.24 14.712 15.864 14.712 16.888C14.712 18.008 14.416 18.664 13.824 18.856C13.552 18.952 13.136 19 12.576 19H3.072C1.952 19 1.296 18.696 1.104 18.088C1.008 17.832 0.96 17.424 0.96 16.864V3.52C0.96 2.704 1.112 2.152 1.416 1.864C1.72 1.56 2.296 1.408 3.144 1.408H12.6C12.968 1.408 13.24 1.424 13.416 1.456C13.608 1.472 13.824 1.544 14.064 1.672C14.496 1.896 14.712 2.52 14.712 3.544C14.712 4.664 14.416 5.32 13.824 5.512C13.552 5.608 13.136 5.656 12.576 5.656H5.208V8.08H9.96C10.328 8.08 10.6 8.096 10.776 8.128C10.968 8.144 11.184 8.216 11.424 8.344C11.856 8.568 12.072 9.192 12.072 10.216C12.072 11.336 11.768 11.992 11.16 12.184C10.888 12.28 10.472 12.328 9.912 12.328H5.208V14.752ZM23.8547 12.664L27.0467 15.304C27.4467 15.64 27.6947 15.896 27.7907 16.072C27.9027 16.248 27.9587 16.416 27.9587 16.576C27.9587 16.96 27.7107 17.48 27.2147 18.136C26.6707 18.808 26.1907 19.144 25.7747 19.144C25.4227 19.144 24.9347 18.912 24.3107 18.448L24.0707 18.28C23.7027 17.976 23.1347 17.448 22.3667 16.696C21.5987 15.928 21.0147 15.384 20.6147 15.064V16.912C20.6147 17.28 20.5987 17.56 20.5667 17.752C20.5507 17.928 20.4787 18.136 20.3507 18.376C20.1427 18.792 19.5267 19 18.5027 19C17.4947 19 16.8787 18.784 16.6547 18.352C16.5427 18.112 16.4707 17.904 16.4387 17.728C16.4227 17.536 16.4147 17.256 16.4147 16.888V2.512C16.4147 2.144 16.4227 1.872 16.4387 1.696C16.4707 1.504 16.5427 1.288 16.6547 1.048C16.8787 0.615999 17.5027 0.399999 18.5267 0.399999C19.2947 0.399999 19.8387 0.535999 20.1587 0.808C20.4307 1.032 20.5747 1.384 20.5907 1.864C20.6067 2.008 20.6147 2.232 20.6147 2.536V10.144C20.9027 9.904 21.3347 9.496 21.9107 8.92C22.5027 8.344 22.9427 7.936 23.2307 7.696L23.5187 7.504C24.0787 7.072 24.5587 6.856 24.9587 6.856C25.3587 6.856 25.8147 7.184 26.3267 7.84C26.8547 8.48 27.1187 8.984 27.1187 9.352C27.1187 9.72 26.8227 10.152 26.2307 10.648L23.8547 12.664ZM28.3453 12.688C28.3453 10.768 29.0173 9.184 30.3613 7.936C31.7053 6.688 33.2413 6.064 34.9693 6.064C36.6973 6.064 38.2253 6.688 39.5533 7.936C40.8813 9.168 41.5453 10.744 41.5453 12.664C41.5453 13.992 41.2013 15.176 40.5133 16.216C39.8253 17.24 38.9853 18 37.9933 18.496C37.0173 18.976 36.0013 19.216 34.9453 19.216C33.8893 19.216 32.8653 18.96 31.8733 18.448C30.8813 17.92 30.0413 17.152 29.3533 16.144C28.6813 15.12 28.3453 13.968 28.3453 12.688ZM33.3613 14.416C33.8733 14.8 34.3933 14.992 34.9213 14.992C35.4493 14.992 35.9773 14.792 36.5053 14.392C37.0333 13.992 37.2973 13.4 37.2973 12.616C37.2973 11.832 37.0493 11.248 36.5533 10.864C36.0573 10.48 35.5213 10.288 34.9453 10.288C34.3693 10.288 33.8333 10.488 33.3373 10.888C32.8413 11.288 32.5933 11.88 32.5933 12.664C32.5933 13.432 32.8493 14.016 33.3613 14.416ZM56.7099 16.024C56.9499 16.6 57.0699 17.016 57.0699 17.272C57.0699 17.88 56.5739 18.392 55.5819 18.808C55.0699 19.032 54.6539 19.144 54.3339 19.144C54.0299 19.144 53.7739 19.072 53.5659 18.928C53.3739 18.768 53.2299 18.608 53.1339 18.448C52.9739 18.144 52.3499 16.696 51.2619 14.104L50.5179 14.152H47.4939V16.864C47.4939 17.232 47.4779 17.512 47.4459 17.704C47.4299 17.88 47.3579 18.088 47.2299 18.328C47.0059 18.76 46.3819 18.976 45.3579 18.976C44.2379 18.976 43.5819 18.68 43.3899 18.088C43.2939 17.816 43.2459 17.4 43.2459 16.84V3.52C43.2459 3.152 43.2539 2.88 43.2699 2.704C43.3019 2.512 43.3819 2.296 43.5099 2.056C43.7339 1.624 44.3579 1.408 45.3819 1.408H50.5659C51.9739 1.408 53.3419 1.92 54.6699 2.944C55.3099 3.44 55.8379 4.112 56.2539 4.96C56.6699 5.808 56.8779 6.752 56.8779 7.792C56.8779 9.6 56.2779 11.088 55.0779 12.256C55.4299 13.104 55.9739 14.36 56.7099 16.024ZM47.4939 9.904H50.5659C51.0299 9.904 51.4939 9.728 51.9579 9.376C52.4219 9.024 52.6539 8.496 52.6539 7.792C52.6539 7.088 52.4219 6.56 51.9579 6.208C51.4939 5.84 51.0139 5.656 50.5179 5.656H47.4939V9.904ZM70.2598 11.176C70.2598 12.152 70.0118 12.88 69.5158 13.36C69.0358 13.824 68.4998 14.056 67.9078 14.056H62.2198C62.2198 14.504 62.4838 14.88 63.0118 15.184C63.5398 15.488 64.0678 15.64 64.5958 15.64C65.5238 15.64 66.2518 15.544 66.7798 15.352L67.0438 15.256C67.4278 15.08 67.7478 14.992 68.0038 14.992C68.5158 14.992 68.9558 15.352 69.3238 16.072C69.5318 16.504 69.6358 16.872 69.6358 17.176C69.6358 18.6 67.9318 19.312 64.5238 19.312C63.3398 19.312 62.2838 19.112 61.3558 18.712C60.4438 18.296 59.7318 17.752 59.2198 17.08C58.2118 15.784 57.7078 14.336 57.7078 12.736C57.7078 10.72 58.3558 9.112 59.6518 7.912C60.9638 6.696 62.5958 6.088 64.5478 6.088C66.7718 6.088 68.4038 6.872 69.4438 8.44C69.9878 9.272 70.2598 10.184 70.2598 11.176ZM65.1958 11.872C65.8038 11.872 66.1078 11.616 66.1078 11.104C66.1078 10.736 65.9638 10.44 65.6758 10.216C65.4038 9.992 65.0038 9.88 64.4758 9.88C63.9638 9.88 63.4518 10.096 62.9398 10.528C62.4278 10.944 62.1718 11.392 62.1718 11.872H65.1958ZM72.0716 17.872C71.7676 17.68 71.6156 17.376 71.6156 16.96C71.6156 16.544 71.9196 15.912 72.5276 15.064C72.7036 14.792 72.9836 14.656 73.3676 14.656C73.7676 14.656 74.3036 14.856 74.9756 15.256C75.6476 15.64 76.2556 15.832 76.7996 15.832C77.7756 15.832 78.2636 15.64 78.2636 15.256C78.2636 14.952 77.7276 14.728 76.6556 14.584C75.6476 14.44 74.6476 14.064 73.6556 13.456C73.1916 13.168 72.8076 12.72 72.5036 12.112C72.1996 11.488 72.0476 10.752 72.0476 9.904C72.0476 7.376 73.7836 6.112 77.2556 6.112C78.3916 6.112 79.5596 6.384 80.7596 6.928C81.3196 7.184 81.5996 7.504 81.5996 7.888C81.5996 8.272 81.4236 8.744 81.0716 9.304C80.7196 9.864 80.3596 10.144 79.9916 10.144C79.7996 10.144 79.4396 10.024 78.9116 9.784C78.3996 9.544 77.8396 9.424 77.2316 9.424C76.2876 9.424 75.8156 9.6 75.8156 9.952C75.8156 10.432 76.3596 10.744 77.4476 10.888C78.5036 11 79.5276 11.304 80.5196 11.8C80.9836 12.024 81.3676 12.416 81.6716 12.976C81.9916 13.52 82.1516 14.208 82.1516 15.04C82.1516 15.872 81.9916 16.584 81.6716 17.176C81.3676 17.752 80.9356 18.184 80.3756 18.472C79.3516 18.968 78.0636 19.216 76.5116 19.216C74.9756 19.216 73.4956 18.768 72.0716 17.872ZM90.8368 10.6L89.2768 10.504V13.816C89.2768 14.248 89.3408 14.56 89.4688 14.752C89.6128 14.944 89.8688 15.04 90.2368 15.04C90.6208 15.04 90.9088 15.056 91.1008 15.088C91.3088 15.104 91.5248 15.176 91.7488 15.304C92.1168 15.512 92.3008 16.048 92.3008 16.912C92.3008 17.92 92.0768 18.536 91.6288 18.76C91.3888 18.872 91.1728 18.944 90.9808 18.976C90.8048 18.992 90.5408 19 90.1888 19C88.5248 19 87.2608 18.624 86.3968 17.872C85.5328 17.12 85.1008 15.848 85.1008 14.056V10.504C84.7968 10.552 84.4688 10.576 84.1168 10.576C83.7648 10.576 83.4688 10.44 83.2288 10.168C83.0048 9.896 82.8928 9.432 82.8928 8.776C82.8928 8.12 82.9328 7.648 83.0128 7.36C83.0928 7.056 83.2048 6.84 83.3488 6.712C83.6048 6.504 83.9248 6.4 84.3088 6.4L85.1008 6.496V4.024C85.1008 3.656 85.1088 3.384 85.1248 3.208C85.1568 3.032 85.2368 2.84 85.3648 2.632C85.5728 2.232 86.1888 2.032 87.2128 2.032C88.3008 2.032 88.9488 2.328 89.1568 2.92C89.2368 3.176 89.2768 3.584 89.2768 4.144V6.496C89.9808 6.432 90.5088 6.4 90.8608 6.4C91.2288 6.4 91.5008 6.416 91.6768 6.448C91.8688 6.464 92.0848 6.536 92.3248 6.664C92.7408 6.872 92.9488 7.488 92.9488 8.512C92.9488 9.52 92.7328 10.136 92.3008 10.36C92.0608 10.472 91.8448 10.544 91.6528 10.576C91.4768 10.592 91.2048 10.6 90.8368 10.6ZM102.632 7.696C102.728 6.8 103.36 6.352 104.528 6.352C105.152 6.352 105.616 6.4 105.92 6.496C106.224 6.592 106.432 6.76 106.544 7C106.672 7.24 106.744 7.456 106.76 7.648C106.792 7.824 106.808 8.096 106.808 8.464V16.864C106.808 17.232 106.792 17.512 106.76 17.704C106.744 17.88 106.68 18.088 106.568 18.328C106.344 18.744 105.792 18.952 104.912 18.952C104.048 18.952 103.464 18.848 103.16 18.64C102.872 18.416 102.704 18.096 102.656 17.68C102.064 18.528 101.072 18.952 99.6801 18.952C98.3041 18.952 97.0241 18.32 95.8401 17.056C94.6561 15.792 94.0641 14.328 94.0641 12.664C94.0641 10.984 94.6561 9.52 95.8401 8.272C97.0401 7.008 98.3521 6.376 99.7761 6.376C100.32 6.376 100.816 6.472 101.264 6.664C101.712 6.856 102.024 7.04 102.2 7.216C102.376 7.376 102.52 7.536 102.632 7.696ZM98.2641 12.688C98.2641 13.216 98.4721 13.696 98.8881 14.128C99.3041 14.544 99.8081 14.752 100.4 14.752C100.992 14.752 101.48 14.536 101.864 14.104C102.264 13.672 102.464 13.2 102.464 12.688C102.464 12.16 102.272 11.672 101.888 11.224C101.52 10.776 101.016 10.552 100.376 10.552C99.7521 10.552 99.2401 10.776 98.8401 11.224C98.4561 11.672 98.2641 12.16 98.2641 12.688ZM114.487 18.952C112.871 18.952 111.527 18.344 110.455 17.128C109.399 15.896 108.871 14.4 108.871 12.64V8.44C108.871 8.056 108.879 7.776 108.895 7.6C108.927 7.424 108.999 7.216 109.111 6.976C109.335 6.544 109.959 6.328 110.983 6.328C112.103 6.328 112.759 6.632 112.951 7.24C113.047 7.496 113.095 7.904 113.095 8.464V12.664C113.095 13.32 113.279 13.832 113.647 14.2C114.031 14.568 114.535 14.752 115.159 14.752C115.799 14.752 116.311 14.56 116.695 14.176C117.095 13.792 117.295 13.288 117.295 12.664V8.416C117.295 8.048 117.303 7.776 117.319 7.6C117.351 7.408 117.431 7.192 117.559 6.952C117.767 6.536 118.383 6.328 119.407 6.328C120.415 6.328 121.031 6.544 121.255 6.976C121.367 7.216 121.431 7.432 121.447 7.624C121.479 7.8 121.495 8.072 121.495 8.44V16.936C121.495 17.288 121.479 17.56 121.447 17.752C121.431 17.928 121.359 18.128 121.231 18.352C120.991 18.768 120.375 18.976 119.383 18.976C118.407 18.976 117.807 18.784 117.583 18.4C117.423 18.128 117.343 17.8 117.343 17.416C117.279 17.528 117.135 17.688 116.911 17.896C116.687 18.104 116.471 18.28 116.263 18.424C115.719 18.776 115.127 18.952 114.487 18.952ZM132.168 6.496C132.472 6.592 132.72 6.76 132.912 7C133.12 7.224 133.224 7.592 133.224 8.104C133.224 8.616 133.072 9.176 132.768 9.784C132.464 10.392 132.024 10.696 131.448 10.696C131.16 10.696 130.88 10.632 130.608 10.504C130.352 10.376 130.008 10.312 129.576 10.312C129.144 10.312 128.736 10.464 128.352 10.768C127.984 11.072 127.8 11.44 127.8 11.872V16.912C127.8 17.28 127.784 17.56 127.752 17.752C127.736 17.928 127.664 18.136 127.536 18.376C127.296 18.792 126.672 19 125.664 19C124.896 19 124.344 18.864 124.008 18.592C123.752 18.368 123.608 18.024 123.576 17.56C123.576 17.4 123.576 17.168 123.576 16.864V8.44C123.576 8.072 123.584 7.8 123.6 7.624C123.632 7.432 123.704 7.224 123.816 7C124.04 6.568 124.664 6.352 125.688 6.352C126.648 6.352 127.248 6.536 127.488 6.904C127.664 7.16 127.752 7.424 127.752 7.696C127.832 7.584 127.944 7.448 128.088 7.288C128.248 7.128 128.576 6.912 129.072 6.64C129.568 6.368 130 6.232 130.368 6.232C130.752 6.232 131.072 6.256 131.328 6.304C131.584 6.336 131.864 6.4 132.168 6.496ZM142.176 7.696C142.272 6.8 142.904 6.352 144.072 6.352C144.696 6.352 145.16 6.4 145.464 6.496C145.768 6.592 145.976 6.76 146.088 7C146.216 7.24 146.288 7.456 146.304 7.648C146.336 7.824 146.352 8.096 146.352 8.464V16.864C146.352 17.232 146.336 17.512 146.304 17.704C146.288 17.88 146.224 18.088 146.112 18.328C145.888 18.744 145.336 18.952 144.456 18.952C143.592 18.952 143.008 18.848 142.704 18.64C142.416 18.416 142.248 18.096 142.2 17.68C141.608 18.528 140.616 18.952 139.224 18.952C137.848 18.952 136.568 18.32 135.384 17.056C134.2 15.792 133.608 14.328 133.608 12.664C133.608 10.984 134.2 9.52 135.384 8.272C136.584 7.008 137.896 6.376 139.32 6.376C139.864 6.376 140.36 6.472 140.808 6.664C141.256 6.856 141.568 7.04 141.744 7.216C141.92 7.376 142.064 7.536 142.176 7.696ZM137.808 12.688C137.808 13.216 138.016 13.696 138.432 14.128C138.848 14.544 139.352 14.752 139.944 14.752C140.536 14.752 141.024 14.536 141.408 14.104C141.808 13.672 142.008 13.2 142.008 12.688C142.008 12.16 141.816 11.672 141.432 11.224C141.064 10.776 140.56 10.552 139.92 10.552C139.296 10.552 138.784 10.776 138.384 11.224C138 11.672 137.808 12.16 137.808 12.688ZM155.447 6.352C157.047 6.352 158.375 6.968 159.431 8.2C160.503 9.416 161.039 10.904 161.039 12.664V16.888C161.039 17.256 161.023 17.536 160.991 17.728C160.975 17.904 160.911 18.104 160.799 18.328C160.575 18.76 159.951 18.976 158.927 18.976C157.791 18.976 157.135 18.68 156.959 18.088C156.863 17.816 156.815 17.408 156.815 16.864V12.64C156.815 11.984 156.623 11.472 156.239 11.104C155.871 10.736 155.367 10.552 154.727 10.552C154.103 10.552 153.591 10.744 153.191 11.128C152.807 11.512 152.615 12.016 152.615 12.64V16.888C152.615 17.256 152.599 17.536 152.567 17.728C152.551 17.904 152.479 18.104 152.351 18.328C152.143 18.76 151.527 18.976 150.503 18.976C149.495 18.976 148.879 18.76 148.655 18.328C148.543 18.088 148.471 17.88 148.439 17.704C148.423 17.512 148.415 17.232 148.415 16.864V8.368C148.415 8.016 148.423 7.752 148.439 7.576C148.471 7.384 148.551 7.176 148.679 6.952C148.903 6.552 149.519 6.352 150.527 6.352C151.503 6.352 152.103 6.536 152.327 6.904C152.487 7.176 152.567 7.504 152.567 7.888C152.631 7.776 152.775 7.616 152.999 7.408C153.223 7.2 153.439 7.032 153.647 6.904C154.191 6.536 154.791 6.352 155.447 6.352ZM170.229 10.6L168.669 10.504V13.816C168.669 14.248 168.733 14.56 168.861 14.752C169.005 14.944 169.261 15.04 169.629 15.04C170.013 15.04 170.301 15.056 170.493 15.088C170.701 15.104 170.917 15.176 171.141 15.304C171.509 15.512 171.693 16.048 171.693 16.912C171.693 17.92 171.469 18.536 171.021 18.76C170.781 18.872 170.565 18.944 170.373 18.976C170.197 18.992 169.933 19 169.581 19C167.917 19 166.653 18.624 165.789 17.872C164.925 17.12 164.493 15.848 164.493 14.056V10.504C164.189 10.552 163.861 10.576 163.509 10.576C163.157 10.576 162.861 10.44 162.621 10.168C162.397 9.896 162.285 9.432 162.285 8.776C162.285 8.12 162.325 7.648 162.405 7.36C162.485 7.056 162.597 6.84 162.741 6.712C162.997 6.504 163.317 6.4 163.701 6.4L164.493 6.496V4.024C164.493 3.656 164.501 3.384 164.517 3.208C164.549 3.032 164.629 2.84 164.757 2.632C164.965 2.232 165.581 2.032 166.605 2.032C167.693 2.032 168.341 2.328 168.549 2.92C168.629 3.176 168.669 3.584 168.669 4.144V6.496C169.373 6.432 169.901 6.4 170.253 6.4C170.621 6.4 170.893 6.416 171.069 6.448C171.261 6.464 171.477 6.536 171.717 6.664C172.133 6.872 172.341 7.488 172.341 8.512C172.341 9.52 172.125 10.136 171.693 10.36C171.453 10.472 171.237 10.544 171.045 10.576C170.869 10.592 170.597 10.6 170.229 10.6Z" fill="url(#paint0_linear)"/>
<defs>
<linearGradient id="paint0_linear" x1="0" y1="10" x2="182" y2="10" gradientUnits="userSpaceOnUse">
<stop stop-color="#F6D365"/>
<stop offset="1" stop-color="#FDA085"/>
</linearGradient>
</defs>
</svg>
